<?xml version="1.0" encoding="UTF-8"?> <svg xmlns="http://www.w3.org/2000/svg" id="Stacked" viewBox="0 0 3814.22 726.2"><defs><style> .cls-1 { fill: #46553d; } .cls-2 { fill: #b29366; } </style></defs><g id="Text"><g id="Text-2" data-name="Text"><g id="Sub_Text" data-name="Sub Text"><path id="Sub_Text_Darker" data-name="Sub Text Darker" class="cls-2" d="M84.33,613.64h93.91v15.46h-37.97v95.42h-17.98v-95.42h-37.97v-15.46ZM253.68,686.04c0,4.37-.59,8.18-1.76,11.42-1.18,3.25-2.83,5.91-4.96,7.98-2.13,2.07-4.51,3.59-7.14,4.54-2.63.95-5.35,1.43-8.15,1.43-5.82,0-10.36-1.43-13.61-4.28-3.25-2.86-4.87-8.09-4.87-15.71v-50.9h-17.98v55.44c0,7.17,1.4,12.99,4.2,17.47,2.8,4.48,6.52,7.73,11.17,9.74,4.65,2.02,9.71,3.02,15.2,3.02,6.72,0,12.54-1.23,17.47-3.7,4.93-2.46,8.85-6.33,11.76-11.59l.84,13.61h15.79v-84h-17.98v45.53ZM352.46,638.84c-6.5,0-11.96,1.43-16.38,4.28-4.43,2.86-7.76,7.03-10,12.52l-1.68-15.12h-15.29v84h17.98v-44.52c0-5.71,1.09-10.42,3.28-14.11,2.18-3.7,4.96-6.47,8.32-8.32,3.36-1.85,6.77-2.77,10.25-2.77,2.58,0,4.62.14,6.13.42,1.51.28,2.88.65,4.12,1.09l2.52-15.79c-1.12-.56-2.52-.98-4.2-1.26-1.68-.28-3.36-.42-5.04-.42ZM467.37,640.52h-21.34l-39.98,41.14v-78.94h-17.98v121.8h17.98v-22.25l16.58-17.22,25.92,39.47h20.83l-34.18-51.12,32.16-32.88ZM495.42,724.52h17.98v-84h-17.98v84ZM504.5,604.06c-3.92,0-6.92.95-8.99,2.86-2.07,1.91-3.11,4.65-3.11,8.23s1.03,6.36,3.11,8.32c2.07,1.96,5.07,2.94,8.99,2.94s6.75-.98,8.82-2.94c2.07-1.96,3.11-4.73,3.11-8.32s-1.04-6.33-3.11-8.23c-2.07-1.9-5.01-2.86-8.82-2.86ZM595.89,677.48l-19.15-4.03c-4.37-.89-7.39-2.18-9.07-3.86-1.68-1.68-2.52-3.64-2.52-5.88,0-2.13.67-3.97,2.02-5.54,1.34-1.57,3.3-2.8,5.88-3.7,2.58-.9,5.65-1.34,9.24-1.34,4.48,0,8.79,1.09,12.94,3.28,4.14,2.18,7.28,5.52,9.41,10l12.43-10.42c-3.14-5.49-7.67-9.71-13.61-12.68-5.94-2.97-13.1-4.45-21.5-4.45-7.28,0-13.52,1.2-18.73,3.61-5.21,2.41-9.16,5.57-11.84,9.49-2.69,3.92-4.03,8.18-4.03,12.77,0,6.16,1.9,11.23,5.71,15.2,3.81,3.98,10.19,6.86,19.15,8.65l17.64,3.7c3.92.9,6.58,2.16,7.98,3.78,1.4,1.62,2.1,3.5,2.1,5.63,0,3.25-1.51,5.77-4.54,7.56-3.02,1.79-7.11,2.69-12.26,2.69-6.5,0-12.07-1.37-16.72-4.12-4.65-2.74-8.21-6.41-10.67-11l-12.43,10.75c4.03,5.94,9.52,10.53,16.46,13.78,6.94,3.25,14.62,4.87,23.02,4.87,7.28,0,13.55-1.12,18.82-3.36,5.26-2.24,9.29-5.4,12.1-9.49,2.8-4.09,4.2-8.82,4.2-14.2s-1.65-9.94-4.96-13.69c-3.3-3.75-8.99-6.41-17.05-7.98ZM710.38,642.28c-4.76-2.29-10.11-3.44-16.04-3.44s-11.12,1.2-15.88,3.61c-4.76,2.41-8.54,6.25-11.34,11.51v-51.24h-17.98v121.8h17.98v-44.35c0-6.5,1.15-11.68,3.44-15.54,2.29-3.86,5.21-6.66,8.74-8.4,3.53-1.74,7.08-2.6,10.67-2.6,5.15,0,9.43,1.62,12.85,4.87,3.42,3.25,5.12,9.02,5.12,17.3v48.72h17.98v-54.43c0-7.06-1.4-12.88-4.2-17.47-2.8-4.59-6.58-8.04-11.34-10.33ZM894.08,677.81l-7.9,26.38h-.34l-7.73-26.38-22.34-64.18h-26.71v110.88h16.63v-64.18l-1.34-30.58h.17l33.77,94.75h14.95l33.77-94.75h.17l-1.34,30.58v64.18h16.63v-110.88h-26.21l-22.18,64.18ZM1050.99,657.65c3.02,5.83,4.54,12.43,4.54,19.82,0,2.02-.06,3.92-.17,5.71-.11,1.79-.28,3.36-.5,4.7h-61.56c.42,4.06,1.33,7.65,2.76,10.75,2.02,4.37,4.87,7.67,8.57,9.91,3.7,2.24,8.06,3.36,13.1,3.36,5.6,0,10.14-1.06,13.61-3.19,3.47-2.13,6.22-5.09,8.23-8.9l14.28,6.72c-2.02,4.03-4.73,7.53-8.15,10.5-3.42,2.97-7.48,5.24-12.18,6.8s-9.86,2.35-15.46,2.35c-8.4,0-15.79-1.73-22.18-5.21-6.38-3.47-11.34-8.48-14.87-15.04-3.53-6.55-5.29-14.36-5.29-23.44s1.76-16.88,5.29-23.44c3.53-6.55,8.43-11.56,14.7-15.04,6.27-3.47,13.38-5.21,21.34-5.21s15.12,1.68,20.83,5.04c5.71,3.36,10.08,7.95,13.1,13.78ZM993.71,674.12h44.27c-.41-6.32-2.28-11.27-5.63-14.87-3.81-4.09-9.02-6.13-15.62-6.13-4.82,0-9.02,1.12-12.6,3.36-3.59,2.24-6.33,5.57-8.23,10-.98,2.29-1.71,4.84-2.18,7.64ZM1147.09,602.72h17.98v121.8h-15.96l-.93-15.75c-.93,2.21-2.13,4.24-3.61,6.09-2.91,3.64-6.53,6.44-10.84,8.4-4.31,1.96-8.93,2.94-13.86,2.94-6.95,0-13.25-1.73-18.9-5.21-5.66-3.47-10.11-8.46-13.36-14.95-3.25-6.49-4.87-14.28-4.87-23.35s1.74-17.36,5.21-23.86c3.47-6.49,8.12-11.45,13.94-14.87,5.82-3.42,12.21-5.12,19.15-5.12s13.21,1.96,18.14,5.88c3.42,2.72,6.04,6.02,7.9,9.88v-51.88ZM1147.09,681.51c0-5.82-.95-10.84-2.86-15.04-1.91-4.2-4.56-7.42-7.98-9.66-3.42-2.24-7.37-3.36-11.84-3.36-7.5,0-13.33,2.58-17.47,7.73-4.15,5.15-6.22,12.26-6.22,21.34s2.02,16.21,6.05,21.42c4.03,5.21,9.69,7.81,16.97,7.81,4.81,0,8.96-1.23,12.43-3.7,3.47-2.46,6.16-5.94,8.06-10.42,1.9-4.48,2.86-9.85,2.86-16.13ZM1202.36,724.52h17.98v-84h-17.98v84ZM1211.43,604.06c-3.92,0-6.92.95-8.99,2.86-2.07,1.91-3.11,4.65-3.11,8.23s1.03,6.36,3.11,8.32c2.07,1.96,5.07,2.94,8.99,2.94s6.75-.98,8.82-2.94c2.07-1.96,3.11-4.73,3.11-8.32s-1.04-6.33-3.11-8.23c-2.07-1.9-5.01-2.86-8.82-2.86ZM1302.32,709.82c-2.24.95-4.87,1.43-7.9,1.43-3.7,0-6.64-.95-8.82-2.86-2.18-1.9-3.28-4.93-3.28-9.07v-44.69h28.9v-14.11h-28.9v-24.7l-17.98,5.04v19.66h-16.13v14.11h16.13v47.71c.11,5.71,1.29,10.33,3.53,13.86,2.24,3.53,5.38,6.08,9.41,7.64,4.03,1.57,8.46,2.35,13.27,2.35s8.76-.65,12.52-1.93c3.75-1.29,6.91-3.05,9.49-5.29l-4.03-13.1c-1.91,1.68-3.98,3-6.22,3.95ZM1408.32,657.65c3.02,5.83,4.54,12.43,4.54,19.82,0,2.02-.06,3.92-.17,5.71-.11,1.79-.28,3.36-.5,4.7h-61.56c.42,4.06,1.33,7.65,2.76,10.75,2.02,4.37,4.87,7.67,8.57,9.91,3.7,2.24,8.06,3.36,13.1,3.36,5.6,0,10.14-1.06,13.61-3.19,3.47-2.13,6.22-5.09,8.23-8.9l14.28,6.72c-2.02,4.03-4.73,7.53-8.15,10.5-3.42,2.97-7.48,5.24-12.18,6.8s-9.86,2.35-15.46,2.35c-8.4,0-15.79-1.73-22.18-5.21-6.38-3.47-11.34-8.48-14.87-15.04-3.53-6.55-5.29-14.36-5.29-23.44s1.76-16.88,5.29-23.44c3.53-6.55,8.43-11.56,14.7-15.04,6.27-3.47,13.38-5.21,21.34-5.21s15.12,1.68,20.83,5.04c5.71,3.36,10.08,7.95,13.1,13.78ZM1351.04,674.12h44.27c-.41-6.32-2.28-11.27-5.63-14.87-3.81-4.09-9.02-6.13-15.62-6.13-4.82,0-9.02,1.12-12.6,3.36-3.59,2.24-6.33,5.57-8.23,10-.98,2.29-1.71,4.84-2.18,7.64ZM1488.29,638.84c-6.5,0-11.96,1.43-16.38,4.28-4.43,2.86-7.76,7.03-10,12.52l-1.68-15.12h-15.29v84h17.98v-44.52c0-5.71,1.09-10.42,3.28-14.11,2.18-3.7,4.96-6.47,8.32-8.32,3.36-1.85,6.77-2.77,10.25-2.77,2.58,0,4.62.14,6.13.42,1.51.28,2.88.65,4.12,1.09l2.52-15.79c-1.12-.56-2.52-.98-4.2-1.26-1.68-.28-3.36-.42-5.04-.42ZM1567.25,638.84c-6.5,0-11.96,1.43-16.38,4.28-4.43,2.86-7.76,7.03-10,12.52l-1.68-15.12h-15.29v84h17.98v-44.52c0-5.71,1.09-10.42,3.28-14.11,2.18-3.7,4.96-6.47,8.32-8.32,3.36-1.85,6.77-2.77,10.25-2.77,2.58,0,4.62.14,6.13.42,1.51.28,2.88.65,4.12,1.09l2.52-15.79c-1.12-.56-2.52-.98-4.2-1.26-1.68-.28-3.36-.42-5.04-.42ZM1673.59,712.42c2.02,0,3.97-.28,5.88-.84l-1.01,12.43c-2.58,1.23-5.83,1.85-9.74,1.85-3.59,0-6.8-.65-9.66-1.93-2.86-1.29-5.1-3.25-6.72-5.88-.76-1.22-1.33-2.6-1.73-4.1-.91,1.37-1.98,2.63-3.22,3.76-3.14,2.86-6.78,4.98-10.92,6.38-4.15,1.4-8.34,2.1-12.6,2.1-5.27,0-10-.84-14.2-2.52-4.2-1.68-7.5-4.23-9.91-7.64-2.41-3.42-3.61-7.64-3.61-12.68,0-6.27,2.04-11.42,6.13-15.46,4.09-4.03,9.88-6.78,17.39-8.23l29.9-5.86v-3.21c0-5.6-1.54-9.94-4.62-13.02-3.08-3.08-7.31-4.62-12.68-4.62-5.04,0-9.35,1.18-12.94,3.53-3.59,2.35-6.22,6.16-7.9,11.42l-15.12-6.38c2.13-6.83,6.3-12.32,12.52-16.46,6.22-4.14,14.25-6.22,24.11-6.22,6.72,0,12.66,1.09,17.81,3.28,5.15,2.18,9.21,5.46,12.18,9.83,2.97,4.37,4.45,9.97,4.45,16.8v37.46c0,4.14,2.07,6.22,6.22,6.22ZM1649.57,693.44v-7.04l-21.17,4.35c-4.7.9-8.23,2.18-10.58,3.86-2.35,1.68-3.53,4.15-3.53,7.39s1.2,5.63,3.61,7.48c2.41,1.85,5.63,2.77,9.66,2.77,2.8,0,5.52-.34,8.15-1.01,2.63-.67,5.01-1.76,7.14-3.28,2.13-1.51,3.78-3.47,4.96-5.88,1.18-2.41,1.76-5.29,1.76-8.65ZM1767.42,642.28c-4.76-2.29-10.11-3.44-16.04-3.44-4.59,0-8.93.73-13.02,2.18-4.09,1.46-7.62,3.78-10.58,6.97-1.9,2.05-3.51,4.43-4.84,7.14l-.79-14.62h-15.96v84h17.98v-44.69c0-6.38,1.15-11.48,3.44-15.29,2.29-3.81,5.18-6.58,8.65-8.32,3.47-1.74,7.06-2.6,10.75-2.6,5.15,0,9.43,1.6,12.85,4.79,3.42,3.19,5.12,8.93,5.12,17.22v48.89h17.98v-54.43c0-7.06-1.4-12.88-4.2-17.47-2.8-4.59-6.58-8.04-11.34-10.33ZM1889.47,657.65c3.02,5.83,4.54,12.43,4.54,19.82,0,2.02-.06,3.92-.17,5.71-.11,1.79-.28,3.36-.5,4.7h-61.56c.42,4.06,1.33,7.65,2.76,10.75,2.02,4.37,4.87,7.67,8.57,9.91,3.7,2.24,8.06,3.36,13.1,3.36,5.6,0,10.14-1.06,13.61-3.19,3.47-2.13,6.22-5.09,8.23-8.9l14.28,6.72c-2.02,4.03-4.73,7.53-8.15,10.5-3.42,2.97-7.48,5.24-12.18,6.8s-9.86,2.35-15.46,2.35c-8.4,0-15.79-1.73-22.18-5.21-6.38-3.47-11.34-8.48-14.87-15.04-3.53-6.55-5.29-14.36-5.29-23.44s1.76-16.88,5.29-23.44c3.53-6.55,8.43-11.56,14.7-15.04,6.27-3.47,13.38-5.21,21.34-5.21s15.12,1.68,20.83,5.04c5.71,3.36,10.08,7.95,13.1,13.78ZM1832.18,674.12h44.27c-.41-6.32-2.28-11.27-5.63-14.87-3.81-4.09-9.02-6.13-15.62-6.13-4.82,0-9.02,1.12-12.6,3.36-3.59,2.24-6.33,5.57-8.23,10-.98,2.29-1.71,4.84-2.18,7.64ZM1998.67,712.42c2.02,0,3.97-.28,5.88-.84l-1.01,12.43c-2.58,1.23-5.82,1.85-9.74,1.85-3.59,0-6.8-.65-9.66-1.93-2.86-1.29-5.1-3.25-6.72-5.88-.76-1.22-1.33-2.6-1.73-4.1-.91,1.37-1.98,2.63-3.22,3.76-3.14,2.86-6.78,4.98-10.92,6.38-4.14,1.4-8.34,2.1-12.6,2.1-5.27,0-10-.84-14.2-2.52-4.2-1.68-7.5-4.23-9.91-7.64-2.41-3.42-3.61-7.64-3.61-12.68,0-6.27,2.04-11.42,6.13-15.46,4.09-4.03,9.88-6.78,17.39-8.23l29.9-5.86v-3.21c0-5.6-1.54-9.94-4.62-13.02-3.08-3.08-7.31-4.62-12.68-4.62-5.04,0-9.35,1.18-12.94,3.53-3.59,2.35-6.22,6.16-7.9,11.42l-15.12-6.38c2.13-6.83,6.3-12.32,12.52-16.46,6.22-4.14,14.25-6.22,24.11-6.22,6.72,0,12.66,1.09,17.81,3.28,5.15,2.18,9.21,5.46,12.18,9.83,2.97,4.37,4.45,9.97,4.45,16.8v37.46c0,4.14,2.07,6.22,6.22,6.22ZM1974.64,693.44v-7.04l-21.17,4.35c-4.7.9-8.23,2.18-10.58,3.86-2.35,1.68-3.53,4.15-3.53,7.39s1.2,5.63,3.61,7.48c2.41,1.85,5.63,2.77,9.66,2.77,2.8,0,5.51-.34,8.15-1.01,2.63-.67,5.01-1.76,7.14-3.28,2.13-1.51,3.78-3.47,4.96-5.88,1.18-2.41,1.76-5.29,1.76-8.65ZM2092.49,642.28c-4.76-2.29-10.11-3.44-16.04-3.44-4.59,0-8.93.73-13.02,2.18-4.09,1.46-7.62,3.78-10.58,6.97-1.9,2.05-3.51,4.43-4.84,7.14l-.79-14.62h-15.96v84h17.98v-44.69c0-6.38,1.15-11.48,3.44-15.29,2.29-3.81,5.18-6.58,8.65-8.32,3.47-1.74,7.06-2.6,10.75-2.6,5.15,0,9.43,1.6,12.85,4.79,3.42,3.19,5.12,8.93,5.12,17.22v48.89h17.98v-54.43c0-7.06-1.4-12.88-4.2-17.47-2.8-4.59-6.58-8.04-11.34-10.33ZM2271.12,677.38l30.62,47.14h-20.66l-28.24-44.35h-23.84v44.35h-17.81v-110.88h45.19c11.87,0,21.31,2.97,28.31,8.9,7,5.94,10.5,13.94,10.5,24.02s-3.5,18.45-10.5,24.11c-3.8,3.07-8.33,5.3-13.57,6.71ZM2228.99,665.21h26.04c7.28,0,12.68-1.48,16.21-4.45,3.53-2.97,5.29-7.53,5.29-13.69s-1.76-10.58-5.29-13.61c-3.53-3.02-8.93-4.54-16.21-4.54h-26.04v36.29ZM2398.5,657.65c3.02,5.83,4.54,12.43,4.54,19.82,0,2.02-.06,3.92-.17,5.71-.11,1.79-.28,3.36-.5,4.7h-61.56c.42,4.06,1.33,7.65,2.76,10.75,2.02,4.37,4.87,7.67,8.57,9.91,3.7,2.24,8.06,3.36,13.1,3.36,5.6,0,10.13-1.06,13.61-3.19,3.47-2.13,6.22-5.09,8.23-8.9l14.28,6.72c-2.02,4.03-4.73,7.53-8.15,10.5-3.42,2.97-7.48,5.24-12.18,6.8s-9.86,2.35-15.46,2.35c-8.4,0-15.79-1.73-22.18-5.21-6.38-3.47-11.34-8.48-14.87-15.04-3.53-6.55-5.29-14.36-5.29-23.44s1.76-16.88,5.29-23.44c3.53-6.55,8.43-11.56,14.7-15.04,6.27-3.47,13.38-5.21,21.34-5.21s15.12,1.68,20.83,5.04c5.71,3.36,10.08,7.95,13.1,13.78ZM2341.22,674.12h44.27c-.41-6.32-2.28-11.27-5.63-14.87-3.81-4.09-9.02-6.13-15.62-6.13-4.82,0-9.02,1.12-12.6,3.36-3.59,2.24-6.33,5.57-8.23,10-.98,2.29-1.71,4.84-2.18,7.64ZM2480.15,677.48l-19.15-4.03c-4.37-.89-7.39-2.18-9.07-3.86-1.68-1.68-2.52-3.64-2.52-5.88,0-2.13.67-3.97,2.02-5.54,1.34-1.57,3.3-2.8,5.88-3.7,2.58-.9,5.65-1.34,9.24-1.34,4.48,0,8.79,1.09,12.94,3.28,4.14,2.18,7.28,5.52,9.41,10l12.43-10.42c-3.14-5.49-7.67-9.71-13.61-12.68-5.94-2.97-13.1-4.45-21.5-4.45-7.28,0-13.52,1.2-18.73,3.61-5.21,2.41-9.16,5.57-11.84,9.49-2.69,3.92-4.03,8.18-4.03,12.77,0,6.16,1.9,11.23,5.71,15.2,3.81,3.98,10.19,6.86,19.15,8.65l17.64,3.7c3.92.9,6.58,2.16,7.98,3.78,1.4,1.62,2.1,3.5,2.1,5.63,0,3.25-1.51,5.77-4.54,7.56-3.02,1.79-7.11,2.69-12.26,2.69-6.5,0-12.07-1.37-16.72-4.12-4.65-2.74-8.21-6.41-10.67-11l-12.43,10.75c4.03,5.94,9.52,10.53,16.46,13.78,6.94,3.25,14.62,4.87,23.02,4.87,7.28,0,13.55-1.12,18.82-3.36,5.26-2.24,9.3-5.4,12.1-9.49,2.8-4.09,4.2-8.82,4.2-14.2s-1.65-9.94-4.96-13.69c-3.3-3.75-8.99-6.41-17.05-7.98ZM2577.92,709.82c-2.24.95-4.87,1.43-7.9,1.43-3.7,0-6.64-.95-8.82-2.86-2.18-1.9-3.28-4.93-3.28-9.07v-44.69h28.9v-14.11h-28.9v-24.7l-17.98,5.04v19.66h-16.13v14.11h16.13v47.71c.11,5.71,1.29,10.33,3.53,13.86,2.24,3.53,5.38,6.08,9.41,7.64,4.03,1.57,8.46,2.35,13.27,2.35s8.76-.65,12.52-1.93c3.75-1.29,6.91-3.05,9.49-5.29l-4.03-13.1c-1.91,1.68-3.98,3-6.22,3.95ZM2687.12,712.42c2.02,0,3.97-.28,5.88-.84l-1.01,12.43c-2.58,1.23-5.82,1.85-9.74,1.85-3.59,0-6.8-.65-9.66-1.93-2.86-1.29-5.1-3.25-6.72-5.88-.76-1.22-1.33-2.6-1.73-4.1-.91,1.37-1.98,2.63-3.22,3.76-3.14,2.86-6.78,4.98-10.92,6.38-4.14,1.4-8.34,2.1-12.6,2.1-5.27,0-10-.84-14.2-2.52-4.2-1.68-7.5-4.23-9.91-7.64-2.41-3.42-3.61-7.64-3.61-12.68,0-6.27,2.04-11.42,6.13-15.46,4.09-4.03,9.88-6.78,17.39-8.23l29.9-5.86v-3.21c0-5.6-1.54-9.94-4.62-13.02-3.08-3.08-7.31-4.62-12.68-4.62-5.04,0-9.35,1.18-12.94,3.53-3.59,2.35-6.22,6.16-7.9,11.42l-15.12-6.38c2.13-6.83,6.3-12.32,12.52-16.46,6.22-4.14,14.25-6.22,24.11-6.22,6.72,0,12.66,1.09,17.81,3.28,5.15,2.18,9.21,5.46,12.18,9.83,2.97,4.37,4.45,9.97,4.45,16.8v37.46c0,4.14,2.07,6.22,6.22,6.22ZM2663.1,693.44v-7.04l-21.17,4.35c-4.7.9-8.23,2.18-10.58,3.86-2.35,1.68-3.53,4.15-3.53,7.39s1.2,5.63,3.61,7.48c2.41,1.85,5.63,2.77,9.66,2.77,2.8,0,5.51-.34,8.15-1.01,2.63-.67,5.01-1.76,7.14-3.28,2.13-1.51,3.78-3.47,4.96-5.88,1.18-2.41,1.76-5.29,1.76-8.65ZM2777.5,686.04c0,4.37-.59,8.18-1.76,11.42-1.18,3.25-2.83,5.91-4.96,7.98-2.13,2.07-4.51,3.59-7.14,4.54-2.63.95-5.35,1.43-8.15,1.43-5.82,0-10.36-1.43-13.61-4.28-3.25-2.86-4.87-8.09-4.87-15.71v-50.9h-17.98v55.44c0,7.17,1.4,12.99,4.2,17.47,2.8,4.48,6.52,7.73,11.17,9.74,4.65,2.02,9.72,3.02,15.2,3.02,6.72,0,12.54-1.23,17.47-3.7,4.93-2.46,8.85-6.33,11.76-11.59l.84,13.61h15.79v-84h-17.98v45.53ZM2876.29,638.84c-6.5,0-11.96,1.43-16.38,4.28-4.43,2.86-7.76,7.03-10,12.52l-1.68-15.12h-15.29v84h17.98v-44.52c0-5.71,1.09-10.42,3.28-14.11,2.18-3.7,4.96-6.47,8.32-8.32,3.36-1.85,6.78-2.77,10.25-2.77,2.58,0,4.62.14,6.13.42,1.51.28,2.88.65,4.12,1.09l2.52-15.79c-1.12-.56-2.52-.98-4.2-1.26-1.68-.28-3.36-.42-5.04-.42ZM2982.63,712.42c2.02,0,3.97-.28,5.88-.84l-1.01,12.43c-2.58,1.23-5.82,1.85-9.74,1.85-3.59,0-6.8-.65-9.66-1.93-2.86-1.29-5.1-3.25-6.72-5.88-.76-1.22-1.33-2.6-1.73-4.1-.91,1.37-1.98,2.63-3.22,3.76-3.14,2.86-6.78,4.98-10.92,6.38-4.14,1.4-8.34,2.1-12.6,2.1-5.27,0-10-.84-14.2-2.52-4.2-1.68-7.5-4.23-9.91-7.64-2.41-3.42-3.61-7.64-3.61-12.68,0-6.27,2.04-11.42,6.13-15.46,4.09-4.03,9.88-6.78,17.39-8.23l29.9-5.86v-3.21c0-5.6-1.54-9.94-4.62-13.02-3.08-3.08-7.31-4.62-12.68-4.62-5.04,0-9.35,1.18-12.94,3.53-3.59,2.35-6.22,6.16-7.9,11.42l-15.12-6.38c2.13-6.83,6.3-12.32,12.52-16.46,6.22-4.14,14.25-6.22,24.11-6.22,6.72,0,12.66,1.09,17.81,3.28,5.15,2.18,9.21,5.46,12.18,9.83,2.97,4.37,4.45,9.97,4.45,16.8v37.46c0,4.14,2.07,6.22,6.22,6.22ZM2958.61,693.44v-7.04l-21.17,4.35c-4.7.9-8.23,2.18-10.58,3.86-2.35,1.68-3.53,4.15-3.53,7.39s1.2,5.63,3.61,7.48c2.41,1.85,5.63,2.77,9.66,2.77,2.8,0,5.51-.34,8.15-1.01,2.63-.67,5.01-1.76,7.14-3.28,2.13-1.51,3.78-3.47,4.96-5.88,1.18-2.41,1.76-5.29,1.76-8.65ZM3076.46,642.28c-4.76-2.29-10.11-3.44-16.04-3.44-4.59,0-8.93.73-13.02,2.18-4.09,1.46-7.62,3.78-10.58,6.97-1.9,2.05-3.51,4.43-4.84,7.14l-.79-14.62h-15.96v84h17.98v-44.69c0-6.38,1.15-11.48,3.44-15.29,2.29-3.81,5.18-6.58,8.65-8.32,3.47-1.74,7.06-2.6,10.75-2.6,5.15,0,9.43,1.6,12.85,4.79,3.42,3.19,5.12,8.93,5.12,17.22v48.89h17.98v-54.43c0-7.06-1.4-12.88-4.2-17.47-2.8-4.59-6.58-8.04-11.34-10.33ZM3172.13,709.82c-2.24.95-4.87,1.43-7.9,1.43-3.7,0-6.64-.95-8.82-2.86-2.18-1.9-3.28-4.93-3.28-9.07v-44.69h28.9v-14.11h-28.9v-24.7l-17.98,5.04v19.66h-16.13v14.11h16.13v47.71c.11,5.71,1.29,10.33,3.53,13.86,2.24,3.53,5.38,6.08,9.41,7.64,4.03,1.57,8.46,2.35,13.27,2.35s8.76-.65,12.52-1.93c3.75-1.29,6.91-3.05,9.49-5.29l-4.03-13.1c-1.91,1.68-3.98,3-6.22,3.95ZM3364.32,713.09l-3.02,13.1c-3.59,0-6.92-.36-10-1.09-3.08-.73-6.38-2.32-9.91-4.79-2.17-1.51-4.57-3.5-7.2-5.94-3.11,2.88-6.67,5.31-10.69,7.28-6.16,3.02-13.44,4.54-21.84,4.54-7.5,0-13.97-1.26-19.4-3.78-5.43-2.52-9.63-6.02-12.6-10.5-2.97-4.48-4.45-9.74-4.45-15.79,0-3.47.48-6.8,1.43-10,.95-3.19,2.52-6.27,4.7-9.24,2.18-2.97,5.18-5.71,8.99-8.23,2.71-1.8,5.92-3.43,9.6-4.91-1.88-2.46-3.5-4.69-4.81-6.68-2.41-3.64-4.12-6.94-5.12-9.91-1.01-2.97-1.51-6.13-1.51-9.49,0-4.14,1.06-8.2,3.19-12.18,2.13-3.97,5.35-7.22,9.66-9.74,4.31-2.52,9.94-3.78,16.88-3.78,5.6,0,10.36,1.01,14.28,3.02,3.92,2.02,6.94,4.79,9.07,8.32,2.13,3.53,3.19,7.59,3.19,12.18,0,4.26-.79,8.23-2.35,11.93-1.57,3.7-4.34,7.22-8.32,10.58-3.27,2.77-7.68,5.49-13.2,8.18,3.06,3.79,6.75,8.28,11.09,13.49,4.97,5.98,9.27,11.02,12.91,15.15,1.67-3.26,3.06-6.79,4.14-10.62,1.51-5.38,1.99-11.48,1.43-18.31l13.94.84c.22,7.17-.7,14.11-2.77,20.83-1.85,5.99-4.57,11.45-8.15,16.37,1.51,1.45,2.92,2.69,4.21,3.71,2.91,2.3,5.63,3.81,8.15,4.54,2.52.73,5.35,1.04,8.48.92ZM3294.6,637.83c0,2.02.31,3.98.92,5.88.61,1.91,1.85,4.26,3.7,7.06,1.22,1.85,2.83,4.09,4.81,6.7,3.17-1.92,5.83-3.71,7.96-5.36,2.74-2.13,4.76-4.37,6.05-6.72,1.29-2.35,1.93-5.09,1.93-8.23,0-3.7-1.12-6.55-3.36-8.57-2.24-2.02-5.21-3.02-8.9-3.02-4.37,0-7.64,1.21-9.83,3.61-2.18,2.41-3.28,5.29-3.28,8.65ZM3325.49,705.56c-4.05-4.37-8.74-9.69-14.09-15.99-5.56-6.52-10.32-12.15-14.28-16.91-3.04,1.71-5.57,3.38-7.56,4.98-2.91,2.35-4.99,4.85-6.22,7.48-1.23,2.63-1.85,5.8-1.85,9.49s.98,7.08,2.94,9.83c1.96,2.75,4.62,4.85,7.98,6.3,3.36,1.46,7.11,2.18,11.26,2.18,5.93,0,10.97-1.03,15.12-3.11,2.32-1.16,4.55-2.59,6.7-4.26ZM3533.08,677.22c3.97,4.76,5.96,10.28,5.96,16.55,0,9.52-3.47,17.03-10.42,22.51-6.95,5.49-17.03,8.23-30.24,8.23h-44.35v-110.88h43.68c13.33,0,23.07,2.69,29.23,8.06,6.16,5.38,9.24,12.83,9.24,22.34,0,5.82-1.68,11-5.04,15.54-3.36,4.54-8.29,7.42-14.78,8.65v.17c7.17,1.12,12.74,4.06,16.72,8.82ZM3471.67,661.35h24.7c14.11,0,21.17-5.43,21.17-16.3s-7.06-16.3-21.17-16.3h-24.7v32.59ZM3520.39,692.93c0-5.26-1.76-9.35-5.29-12.26-3.53-2.91-8.82-4.37-15.88-4.37h-27.55v33.26h27.55c7.06,0,12.35-1.45,15.88-4.37,3.53-2.91,5.29-7,5.29-12.26ZM3644.71,712.42c2.02,0,3.97-.28,5.88-.84l-1.01,12.43c-2.58,1.23-5.82,1.85-9.74,1.85-3.59,0-6.8-.65-9.66-1.93-2.86-1.29-5.1-3.25-6.72-5.88-.76-1.22-1.33-2.6-1.73-4.1-.91,1.37-1.98,2.63-3.22,3.76-3.14,2.86-6.78,4.98-10.92,6.38-4.14,1.4-8.34,2.1-12.6,2.1-5.27,0-10-.84-14.2-2.52-4.2-1.68-7.5-4.23-9.91-7.64-2.41-3.42-3.61-7.64-3.61-12.68,0-6.27,2.04-11.42,6.13-15.46,4.09-4.03,9.88-6.78,17.39-8.23l29.9-5.86v-3.21c0-5.6-1.54-9.94-4.62-13.02-3.08-3.08-7.31-4.62-12.68-4.62-5.04,0-9.35,1.18-12.94,3.53-3.59,2.35-6.22,6.16-7.9,11.42l-15.12-6.38c2.13-6.83,6.3-12.32,12.52-16.46,6.22-4.14,14.25-6.22,24.11-6.22,6.72,0,12.66,1.09,17.81,3.28,5.15,2.18,9.21,5.46,12.18,9.83,2.97,4.37,4.45,9.97,4.45,16.8v37.46c0,4.14,2.07,6.22,6.22,6.22ZM3620.69,693.44v-7.04l-21.17,4.35c-4.7.9-8.23,2.18-10.58,3.86-2.35,1.68-3.53,4.15-3.53,7.39s1.2,5.63,3.61,7.48c2.41,1.85,5.63,2.77,9.66,2.77,2.8,0,5.51-.34,8.15-1.01,2.63-.67,5.01-1.76,7.14-3.28,2.13-1.51,3.78-3.47,4.96-5.88,1.18-2.41,1.76-5.29,1.76-8.65ZM3725.69,639.26c-1.68-.28-3.36-.42-5.04-.42-6.5,0-11.96,1.43-16.38,4.28-4.43,2.86-7.76,7.03-10,12.52l-1.68-15.12h-15.29v84h17.98v-44.52c0-5.71,1.09-10.42,3.28-14.11,2.18-3.7,4.96-6.47,8.32-8.32,3.36-1.85,6.78-2.77,10.25-2.77,2.58,0,4.62.14,6.13.42,1.51.28,2.88.65,4.12,1.09l2.52-15.79c-1.12-.56-2.52-.98-4.2-1.26Z"></path></g><g id="Main_Text" data-name="Main Text"><g id="Compund_Version" data-name="Compund Version"><path id="Green" class="cls-1" d="M64.48,397.05C21.49,351.81,0,297.73,0,234.83c0-31.67,5.65-61.42,16.97-89.25,11.3-27.83,27.03-52.26,47.17-73.3,20.13-21.04,43.32-37.55,69.57-49.54,26.24-11.98,54.3-17.99,84.16-17.99s58.03,6,84.5,17.99c26.47,11.99,49.65,28.51,69.57,49.54,19.91,21.04,35.63,45.47,47.17,73.3,11.54,27.83,17.31,57.58,17.31,89.25,0,62.9-21.5,116.97-64.48,162.21-29.42,30.78-62.44,51.24-99.09,61.42-36.65,10.18-73.19,10.18-109.61,0-36.43-10.18-69.35-30.65-98.75-61.42ZM228.73,426.23c22.62,0,41.51-7.91,56.67-23.75,15.15-15.83,26.47-37.21,33.94-64.14,7.47-26.91,11.2-57.12,11.2-90.61,0-24.88-1.93-48.63-5.77-71.26-3.85-22.62-10.07-44.34-18.66-65.16-8.6-21.26-21.27-38.01-38.01-50.22-16.75-12.22-36.88-18.33-60.41-18.33s-43.89,8.6-59.73,25.79c-15.84,17.65-26.81,39.14-32.92,64.48-6.11,25.35-9.16,54.3-9.16,86.88,0,46.15,8.82,90.72,26.47,133.71,9.05,21.72,21.82,39.26,38.35,52.6,16.51,13.35,35.85,20.02,58.03,20.02ZM477.13,460.17c-1.81-1.81-2.71-5.65-2.71-11.54,0-9.05.9-13.57,2.71-13.57,3.62,0,8.82-.68,15.61-2.04s13.12-3.28,19-5.77c5.88-2.48,9.27-4.86,10.18-7.13,2.71-10.4,4.07-30.31,4.07-59.73V101.13c0-27.59-1.81-44.56-5.43-50.9-1.36-2.71-4.87-5.31-10.52-7.81-5.66-2.48-11.43-4.63-17.31-6.45-5.89-1.8-10.64-2.71-14.25-2.71-1.81,0-2.71-3.84-2.71-11.54,0-8.14.45-12.66,1.36-13.57l98.41,4.07c4.52.46,14.7.23,30.54-.68,15.83-.9,37.33-2.04,64.48-3.39,1.36,4.07,2.04,8.14,2.04,12.22,0,8.6-.91,12.9-2.71,12.9-2.71,0-7.47.91-14.25,2.71-6.79,1.81-13.23,3.97-19.34,6.45-6.11,2.49-9.62,4.87-10.52,7.13-1.81,5.89-3.05,13.47-3.73,22.74-.68,9.28-1.02,19.8-1.02,31.56v257.23c0,21.72,1.8,38.01,5.43,48.87,1.8,7.24,17.19,10.86,46.15,10.86h17.65c28.05,0,53.38-5.88,76.02-17.65,7.69-4.07,16.4-11.76,26.13-23.08,9.72-11.3,17.31-23.98,22.74-38.01.9-2.71,4.07-4.07,9.5-4.07,10.86,0,17.65,1.36,20.36,4.07-22.63,62.44-34.85,101.36-36.65,116.74-12.67,0-29.08-.12-49.21-.34-20.14-.23-44.01-.57-71.6-1.02-27.6-.45-50.56-.9-68.89-1.36-18.33-.45-32.47-.45-42.42,0l-99.09,4.07ZM883,460.17c-1.81-1.81-2.71-5.43-2.71-10.86,0-9.5.68-14.25,2.04-14.25,3.62,0,8.82-.9,15.61-2.71,6.79-1.8,13.12-4.07,19-6.79,5.88-2.71,9.27-5.2,10.18-7.47,1.8-6.33,3.05-14.02,3.73-23.08.68-9.05,1.02-19.45,1.02-31.22V103.16c0-28.95-1.81-46.6-5.43-52.94-1.36-2.71-4.87-5.31-10.52-7.81-5.66-2.48-11.43-4.63-17.31-6.45-5.89-1.8-10.64-2.71-14.25-2.71-1.81,0-2.71-3.84-2.71-11.54,0-8.14.45-12.66,1.36-13.57l32.58,2.04c9.95.91,18.09,1.59,24.43,2.04,6.33.46,12.56.57,18.66.34,6.11-.22,13.68-.34,22.74-.34s40.72-1.36,95.02-4.07c1.36,4.07,2.04,8.14,2.04,12.22,0,8.6-.91,12.9-2.71,12.9-2.71,0-7.47.91-14.25,2.71-6.79,1.81-13.23,3.97-19.34,6.45-6.11,2.49-9.62,4.87-10.52,7.13-1.36,5.43-2.49,13.01-3.39,22.74-.91,9.74-1.36,17.99-1.36,24.77v261.3c0,12.67.45,23.99,1.36,33.94.9,9.96,2.26,18.56,4.07,25.79.9,1.81,4.18,4.07,9.84,6.79,5.65,2.71,11.76,5.09,18.33,7.13,6.55,2.04,11.2,3.05,13.91,3.05,1.8,0,2.71,4.31,2.71,12.9,0,4.53-.46,8.6-1.36,12.22-1.81,0-6.11-.23-12.9-.68-6.79-.46-16.07-1.13-27.83-2.04-11.77-.9-22.17-1.58-31.22-2.04-9.06-.45-16.52-.68-22.4-.68-8.14,0-19.24.46-33.26,1.36-14.03.91-27.27,1.7-39.7,2.38-12.45.68-20.93,1.24-25.45,1.7ZM1337.74,464.24c-6.34,0-11.54-2.95-15.61-8.82l-139.14-344.11-22.4-55.65c-1.81-4.97-5.89-9.05-12.22-12.22-6.34-3.16-13.01-5.65-20.02-7.47-7.02-1.8-12.79-2.71-17.31-2.71-1.81,0-2.71-3.84-2.71-11.54,0-7.23.45-11.76,1.36-13.57l42.08,2.71c12.66.91,23.64,1.59,32.92,2.04,9.27.46,16.85.68,22.74.68l102.49-5.43c1.8,1.81,2.71,6.34,2.71,13.57,0,7.7-.91,11.54-2.71,11.54-4.98,0-11.09.91-18.33,2.71-7.24,1.81-13.47,4.53-18.66,8.14-5.21,3.63-7.81,8.14-7.81,13.57,0,3.63,5.2,18.56,15.61,44.79l90.95,223.97,95.7-223.3c9.05-20.81,13.57-36.19,13.57-46.15,0-6.79-4.65-12.44-13.91-16.97-9.28-4.52-20.7-6.79-34.27-6.79-1.36-.9-2.04-4.52-2.04-10.86,0-5.88.45-10.63,1.36-14.25,19,1.36,33.26,2.49,42.76,3.39,9.5.91,16.4,1.47,20.7,1.7,4.29.23,7.81.34,10.52.34s6.55-.22,11.54-.68c4.97-.45,12.78-1.12,23.42-2.04,10.63-.9,26.35-1.8,47.17-2.71,1.8,1.81,2.71,5.21,2.71,10.18,0,9.5-.46,14.25-1.36,14.25-4.98,0-12.9,1.93-23.75,5.77-10.86,3.85-19.68,8.48-26.47,13.91-4.07,4.07-12.67,20.59-25.79,49.55l-146.6,337.32c-3.63,7.7-8.26,13.81-13.91,18.33-5.66,4.52-10.75,6.79-15.27,6.79ZM1613.3,460.17c-1.81-1.81-2.71-5.65-2.71-11.54,0-9.05.9-13.57,2.71-13.57,3.62,0,8.82-.68,15.61-2.04s13.12-3.28,19-5.77c5.88-2.48,9.27-4.86,10.18-7.13,2.71-10.4,4.07-30.31,4.07-59.73V103.84c0-25.33-1.36-42.98-4.07-52.94-.91-2.71-4.41-5.54-10.52-8.48-6.11-2.94-12.56-5.43-19.34-7.46-6.79-2.04-11.99-3.05-15.61-3.05-1.81,0-2.71-4.07-2.71-12.22,0-7.23.68-11.54,2.04-12.9,18.09.91,35.4,1.7,51.92,2.38,16.51.68,32.46,1.02,47.85,1.02,19.91,0,54.98-.68,105.2-2.04,25.33-.45,47.51-.78,66.51-1.02,19-.22,34.84-.34,47.51-.34.45,2.27,2.26,11.77,5.43,28.51,3.16,16.75,7.91,40.72,14.25,71.94-2.27,2.27-7.47,3.39-15.61,3.39-4.98,0-8.14-1.58-9.5-4.75-5.43-11.76-13.47-22.28-24.09-31.56-10.64-9.27-22.17-16.73-34.61-22.4-12.45-5.65-24.55-8.48-36.31-8.48h-25.79c-28.96,0-43.67,2.95-44.12,8.82-.91,5.43-1.7,12.56-2.38,21.38-.68,8.82-1.02,19.34-1.02,31.56v104.52c0,2.71,9.72,4.07,29.18,4.07h35.97c28.51,0,43.88-.9,46.15-2.71,2.26-2.26,4.07-8.82,5.43-19.68.9-7.23,2.26-13.8,4.07-19.68.45-3.16,3.84-4.75,10.18-4.75,7.69,0,12.66,1.13,14.93,3.39v128.28c-1.81,1.81-6.56,2.71-14.25,2.71-5.89,0-9.5-1.8-10.86-5.43-5.43-17.65-9.06-28.51-10.86-32.58-1.81-3.16-3.05-4.63-3.73-4.41-.68.23-2.15-.56-4.41-2.38-6.34-3.62-23.99-5.43-52.94-5.43-32.58,0-48.87,2.04-48.87,6.11v104.52c0,21.27,1.8,37.33,5.43,48.19,1.8,7.24,17.19,10.86,46.15,10.86h17.65c28.05,0,53.38-5.88,76.02-17.65,7.69-4.07,16.39-11.76,26.13-23.08,9.72-11.3,17.31-23.98,22.74-38.01.9-2.71,4.07-4.07,9.5-4.07,10.86,0,17.65,1.36,20.36,4.07-22.63,62.44-34.85,101.36-36.65,116.74-11.32,0-26.13-.12-44.46-.34-18.33-.23-40.16-.57-65.5-1.02-24.89-.45-47.51-1.02-67.87-1.7-20.36-.68-38.46-.56-54.3.34l-99.09,4.07ZM2232.82,460.17c-1.81-1.81-2.71-5.43-2.71-10.86,0-9.5.68-14.25,2.04-14.25,3.62,0,8.82-.9,15.61-2.71,6.79-1.8,13.12-4.07,19-6.79,5.88-2.71,9.27-5.2,10.18-7.47,1.8-6.33,3.05-13.8,3.73-22.4.68-8.59,1.02-18.55,1.02-29.86V120.13c0-35.29-1.81-56.1-5.43-62.44l-3.39-6.11c-1.81-1.8-7.7-3.28-17.65-4.41-9.96-1.12-21.5-1.7-34.61-1.7-18.56,0-33.71,5.09-45.47,15.27-11.77,10.18-20.82,27.26-27.15,51.24-.91,2.27-3.17,3.39-6.79,3.39-9.96,0-16.52-1.58-19.68-4.75l12.9-110.63c9.95,2.27,18.77,4.07,26.47,5.43,7.69,1.36,14.48,2.04,20.36,2.04,23.08,0,47.85.68,74.32,2.04,26.47,1.36,51.24,2.04,74.32,2.04s47.96-.68,74.66-2.04c26.69-1.36,51.58-2.04,74.66-2.04,5.88,0,12.66-.68,20.36-2.04,7.69-1.36,16.51-3.16,26.47-5.43l12.9,111.31c-3.17,3.17-9.74,4.75-19.68,4.75-3.63,0-5.89-1.12-6.79-3.39-11.32-44.79-35.53-67.19-72.62-67.19s-55.43,4.07-57.69,12.22c-1.81,6.34-3.17,14.49-4.07,24.43-.91,9.96-1.36,21.95-1.36,35.97v245.01c0,11.32.45,21.5,1.36,30.54.9,9.06,2.26,17.2,4.07,24.43.9,1.81,4.18,4.07,9.84,6.79,5.65,2.71,11.76,5.09,18.32,7.13,6.55,2.04,11.2,3.05,13.91,3.05,1.8,0,2.71,4.31,2.71,12.9,0,4.53-.46,8.6-1.36,12.22-1.81,0-6.11-.23-12.9-.68-6.79-.46-16.07-1.13-27.83-2.04-11.77-.9-22.17-1.58-31.22-2.04-9.06-.45-16.52-.68-22.4-.68-8.14,0-19.24.46-33.26,1.36-14.03.91-27.27,1.7-39.71,2.38-12.45.68-20.93,1.24-25.45,1.7ZM2989.59,462.2c-22.17,0-42.42-2.15-60.75-6.45-18.32-4.29-32.92-9.16-43.78-14.59-11.32-5.43-22.4-13.57-33.26-24.43-5.43-5.43-10.41-10.63-14.93-15.61-4.53-4.97-9.4-11.2-14.59-18.66-5.21-7.47-11.88-17.41-20.02-29.86-8.14-12.44-18.78-29.07-31.9-49.89-17.65-26.69-29.42-41.17-35.29-43.44-.91-.45-3.39-.68-7.47-.68s-6.11,3.63-6.11,10.86v92.3c0,23.99,1.58,42.54,4.75,55.65.9,3.63,4.75,6.79,11.54,9.5s14.25,4.75,22.4,6.11,14.48,2.04,19,2.04c1.8,0,2.71,4.31,2.71,12.9,0,4.53-.46,8.6-1.36,12.22-27.15-1.36-49.32-2.49-66.51-3.39-17.2-.9-29.64-1.12-37.33-.68l-99.09,4.07c-1.81-1.81-2.71-5.65-2.71-11.54,0-9.05.9-13.57,2.71-13.57,3.62,0,8.82-.68,15.61-2.04s13.12-3.28,19-5.77c5.88-2.48,9.27-4.86,10.18-7.13,2.71-10.4,4.07-30.31,4.07-59.73V103.84c0-25.33-1.36-42.98-4.07-52.94-.91-2.71-4.41-5.54-10.52-8.48-6.11-2.94-12.56-5.43-19.34-7.46-6.79-2.04-11.99-3.05-15.61-3.05-1.81,0-2.71-4.07-2.71-12.22,0-7.23.68-11.54,2.04-12.9,20.81.91,39.47,1.7,55.99,2.38,16.51.68,31.1,1.02,43.78,1.02,21.72-.45,38.69-.68,50.9-.68h44.12c18.09,0,36.31,2.27,54.64,6.79,18.33,4.53,35.18,11.43,50.56,20.7,15.38,9.28,27.71,21.04,36.99,35.29,9.27,14.25,13.91,31.34,13.91,51.24s-4.07,38.46-12.22,55.65c-8.14,17.2-18.67,31.68-31.56,43.44-12.9,11.77-26.13,19.92-39.71,24.43-3.63,1.36-4.31,3.85-2.04,7.47,9.95,16.75,17.65,29.42,23.08,38.01,5.43,8.6,10.06,15.5,13.91,20.7,3.84,5.21,8.48,11.54,13.91,19,5.43,7.46,13.12,18.66,23.08,33.6,7.69,10.86,16.85,21.61,27.49,32.24,10.62,10.64,22.16,19.46,34.61,26.47,12.44,7.02,24.32,10.52,35.63,10.52,1.8,1.81,2.71,5.89,2.71,12.22,0,5.43-.91,9.96-2.71,13.57-3.17.45-6.68.79-10.52,1.02-3.85.22-8.26.34-13.24.34ZM2750,221.26h18.33c17.65,0,31.33-7.69,41.06-23.08,9.72-15.38,14.59-35.74,14.59-61.08,0-60.17-21.04-90.27-63.12-90.27-15.84,0-26.25,1.81-31.22,5.43-5.43,4.07-8.14,26.25-8.14,66.51v73.3c0,12.67,2.6,20.7,7.8,24.09,5.2,3.39,12.1,5.09,20.7,5.09ZM3040.49,460.17c-1.81-1.81-2.71-5.65-2.71-11.54,0-9.05.9-13.57,2.71-13.57,3.62,0,8.82-.68,15.61-2.04s13.12-3.28,19-5.77c5.88-2.48,9.27-4.86,10.18-7.13,2.71-10.4,4.07-30.31,4.07-59.73V103.84c0-25.33-1.36-42.98-4.07-52.94-.91-2.71-4.41-5.54-10.52-8.48-6.11-2.94-12.56-5.43-19.34-7.46-6.79-2.04-11.99-3.05-15.61-3.05-1.81,0-2.71-4.07-2.71-12.22,0-7.23.68-11.54,2.04-12.9,18.09.91,35.4,1.7,51.92,2.38,16.51.68,32.46,1.02,47.85,1.02,19.91,0,54.98-.68,105.2-2.04,25.33-.45,47.51-.78,66.51-1.02,19-.22,34.84-.34,47.51-.34.45,2.27,2.26,11.77,5.43,28.51,3.16,16.75,7.91,40.72,14.25,71.94-2.27,2.27-7.47,3.39-15.61,3.39-4.98,0-8.14-1.58-9.5-4.75-5.43-11.76-13.47-22.28-24.09-31.56-10.64-9.27-22.18-16.73-34.62-22.4-12.45-5.65-24.55-8.48-36.31-8.48h-25.79c-28.96,0-43.67,2.95-44.12,8.82-.91,5.43-1.7,12.56-2.38,21.38-.68,8.82-1.02,19.34-1.02,31.56v104.52c0,2.71,9.72,4.07,29.18,4.07h35.97c28.51,0,43.88-.9,46.15-2.71,2.26-2.26,4.07-8.82,5.43-19.68.9-7.23,2.26-13.8,4.07-19.68.45-3.16,3.84-4.75,10.18-4.75,7.69,0,12.66,1.13,14.93,3.39v128.28c-1.81,1.81-6.56,2.71-14.25,2.71-5.89,0-9.5-1.8-10.86-5.43-5.43-17.65-9.06-28.51-10.86-32.58-1.81-3.16-3.05-4.63-3.73-4.41-.68.23-2.15-.56-4.41-2.38-6.34-3.62-23.99-5.43-52.94-5.43-32.58,0-48.87,2.04-48.87,6.11v104.52c0,21.27,1.8,37.33,5.43,48.19,1.8,7.24,17.19,10.86,46.15,10.86h17.65c28.05,0,53.38-5.88,76.02-17.65,7.69-4.07,16.39-11.76,26.13-23.08,9.72-11.3,17.31-23.98,22.74-38.01.9-2.71,4.07-4.07,9.5-4.07,10.86,0,17.65,1.36,20.36,4.07-22.63,62.44-34.85,101.36-36.65,116.74-11.32,0-26.13-.12-44.46-.34-18.33-.23-40.16-.57-65.5-1.02-24.89-.45-47.51-1.02-67.87-1.7-20.36-.68-38.46-.56-54.3.34l-99.09,4.07ZM3446.36,460.17c-1.81-1.81-2.71-5.65-2.71-11.54,0-9.05.9-13.57,2.71-13.57,3.62,0,8.82-.68,15.61-2.04s13.12-3.28,19-5.77c5.88-2.48,9.27-4.86,10.18-7.13,2.71-10.4,4.07-30.31,4.07-59.73V103.84c0-25.33-1.36-42.98-4.07-52.94-.91-2.71-4.41-5.54-10.52-8.48-6.11-2.94-12.56-5.43-19.34-7.46-6.79-2.04-11.99-3.05-15.61-3.05-1.81,0-2.71-4.07-2.71-12.22,0-7.23.68-11.54,2.04-12.9,18.09.91,35.4,1.7,51.92,2.38,16.51.68,32.46,1.02,47.85,1.02,19.91,0,54.98-.68,105.2-2.04,25.33-.45,47.51-.78,66.51-1.02,19-.22,34.84-.34,47.51-.34.45,2.27,2.26,11.77,5.43,28.51,3.16,16.75,7.91,40.72,14.25,71.94-2.27,2.27-7.47,3.39-15.61,3.39-4.98,0-8.14-1.58-9.5-4.75-5.43-11.76-13.47-22.28-24.09-31.56-10.64-9.27-22.18-16.73-34.62-22.4-12.45-5.65-24.55-8.48-36.31-8.48h-25.79c-28.96,0-43.67,2.95-44.12,8.82-.91,5.43-1.7,12.56-2.38,21.38-.68,8.82-1.02,19.34-1.02,31.56v104.52c0,2.71,9.72,4.07,29.18,4.07h35.97c28.51,0,43.88-.9,46.15-2.71,2.26-2.26,4.07-8.82,5.43-19.68.9-7.23,2.26-13.8,4.07-19.68.45-3.16,3.84-4.75,10.18-4.75,7.69,0,12.66,1.13,14.93,3.39v128.28c-1.81,1.81-6.56,2.71-14.25,2.71-5.89,0-9.5-1.8-10.86-5.43-5.43-17.65-9.06-28.51-10.86-32.58-1.81-3.16-3.05-4.63-3.73-4.41-.68.23-2.15-.56-4.41-2.38-6.34-3.62-23.99-5.43-52.94-5.43-32.58,0-48.87,2.04-48.87,6.11v104.52c0,21.27,1.8,37.33,5.43,48.19,1.8,7.24,17.19,10.86,46.15,10.86h17.65c28.05,0,53.38-5.88,76.02-17.65,7.69-4.07,16.39-11.76,26.13-23.08,9.72-11.3,17.31-23.98,22.74-38.01.9-2.71,4.07-4.07,9.5-4.07,10.86,0,17.65,1.36,20.36,4.07-22.63,62.44-34.85,101.36-36.65,116.74-11.32,0-26.13-.12-44.46-.34-18.33-.23-40.16-.57-65.5-1.02-24.89-.45-47.51-1.02-67.87-1.7-20.36-.68-38.46-.56-54.3.34l-99.09,4.07Z"></path></g></g></g></g></svg> 